<svg width="217" height="47" viewBox="0 0 217 47" fill="none" xmlns="http://www.w3.org/2000/svg">
<path d="M35.213 14.501L35.206 9.288L25.586 3V7.022L31.931 11.2L31.936 14.402L28.988 16.398L26.977 14.931V12.446L23.7 10.204V14.727L18.505 17.915L18.495 26.335L14.822 28.403L12.937 26.926V24.488L15.169 22.959V22.939V19.166L11.152 21.854L8.081 19.856L5.276 21.693L9.659 24.694V26.536L6.5 28.674L3.277 26.492V19.23L8.062 15.991L8.066 12.875L14.203 16.827L19.361 13.394L16.216 11.559L14.159 12.947L9.677 9.983L14.731 7.036L19.11 9.603V5.775L14.736 3.211L4.794 9.008L4.787 14.223L0 17.465V28.257L4.787 31.499L4.794 36.714L14.414 43V38.981L8.069 34.803L8.064 31.601L11.012 29.605L13.023 31.072V33.557L16.3 35.798V31.275L21.569 28.088L21.628 19.667L25.178 17.599L27.063 19.076V21.514L24.831 23.043V23.063V26.837L28.848 24.148L31.919 26.146L34.724 24.309L30.34 21.306V19.466L33.5 17.329L36.723 19.511V26.772L31.939 30.012L31.934 33.127L25.797 29.173L20.639 32.584L23.784 34.416L25.841 33.055L30.323 36.019L25.269 38.966L20.89 36.399V40.225L25.264 42.789L35.206 36.995L35.213 31.779L40 28.537V17.743L35.213 14.501Z" fill="#AC6AFF"/>
<path d="M57.44 34V13.15H62.33V18.1L62.24 21.4L65.27 21.28H68.06L71.09 21.4L71 18.1V13.15H75.89V34H71V28L71.09 25.39L68 25.51H65.27L62.24 25.39L62.33 28.06V34H57.44ZM81.3181 41.2C80.1781 41.2 79.4281 41.2 78.0481 41.08V36.79C78.9481 36.88 79.8481 36.91 80.3881 36.91C82.2181 36.91 83.0281 36.37 83.5081 35.38L83.8981 34.57L77.4781 19H82.8481L85.2481 26.29L85.9381 29.38H86.3581L87.0181 26.29L89.1481 19H94.4281L88.3081 35.44C86.7481 39.64 84.6481 41.2 81.3181 41.2ZM95.9361 41.2V19H100.736V19.57L100.436 21.55H100.886C101.696 19.96 103.256 18.82 105.416 18.82C108.956 18.82 111.566 21.79 111.566 26.47C111.566 31.03 108.956 34.18 105.416 34.18C103.256 34.18 101.696 32.89 100.886 31.45H100.436L100.736 33.58V41.2H95.9361ZM103.796 30.28C105.656 30.28 106.766 28.72 106.766 26.47C106.766 24.25 105.656 22.72 103.796 22.72C101.906 22.72 100.796 24.28 100.796 26.47C100.796 28.69 101.906 30.28 103.796 30.28ZM120.708 34.3C116.208 34.3 113.028 31.15 113.028 26.53C113.028 21.88 115.848 18.7 120.588 18.7C125.058 18.7 127.908 21.97 127.908 26.29C127.908 26.92 127.878 27.52 127.818 28.03H119.508L117.588 27.97C117.888 29.89 119.358 30.67 120.708 30.67C121.968 30.67 123.168 30.16 123.528 29.11L127.788 29.53C126.828 32.77 123.948 34.3 120.708 34.3ZM117.588 24.97L119.628 24.91H121.488L123.498 24.97C123.228 23.14 121.878 22.3 120.588 22.3C119.178 22.3 117.888 23.14 117.588 24.97ZM130.096 34V19H134.926V19.54L134.626 21.55H135.076C135.556 20.2 137.056 18.82 140.086 18.82C140.296 18.82 140.476 18.82 140.926 18.85V23.29C140.236 23.23 139.696 23.2 139.216 23.2C136.846 23.2 134.926 24.25 134.926 27.91V34H130.096ZM149.535 34.3C144.525 34.3 141.855 30.76 141.855 26.5C141.855 22.24 144.525 18.7 149.505 18.7C153.795 18.7 156.465 21.19 156.675 24.82L152.265 25.18C152.055 23.44 150.915 22.54 149.475 22.54C147.495 22.54 146.475 24.1 146.475 26.5C146.475 28.72 147.555 30.4 149.505 30.4C151.035 30.4 152.085 29.59 152.325 27.82L156.765 28.18C156.555 31.78 153.795 34.3 149.535 34.3ZM158.719 34V11.2H163.549V19.45L163.219 21.46H163.669C164.869 19.69 166.429 18.79 168.559 18.79C171.859 18.79 173.749 21.01 173.749 24.85V34H168.949V25.9C168.949 23.92 168.079 22.9 166.399 22.9C164.629 22.9 163.549 24.19 163.549 26.86V34H158.719ZM180.772 34.3C177.862 34.3 175.642 32.74 175.642 29.98C175.642 25.33 181.192 25.33 185.362 25.33V24.34C185.362 23.32 184.732 22.42 183.352 22.42C181.912 22.42 181.012 23.32 180.922 24.73L176.362 24.49C176.632 20.71 179.752 18.7 183.352 18.7C187.162 18.7 190.162 20.62 190.162 24.79V34H186.562L186.202 31.57H185.872C184.882 33.64 183.112 34.3 180.772 34.3ZM182.242 30.85C184.012 30.85 185.362 29.89 185.362 28.27V27.88C182.962 27.88 180.412 27.97 180.412 29.62C180.412 30.46 181.162 30.85 182.242 30.85ZM192.788 16.12V11.17H197.798V16.12H192.788ZM192.908 34V19H197.708V34H192.908ZM200.526 34V19H205.356V19.45L205.026 21.46H205.476C206.676 19.69 208.236 18.79 210.366 18.79C213.666 18.79 215.556 21.01 215.556 24.85V34H210.756V25.9C210.756 23.92 209.886 22.9 208.206 22.9C206.436 22.9 205.356 24.19 205.356 26.86V34H200.526Z" fill="white"/>
</svg>
